<?xml version="1.0" encoding="UTF-8" standalone="no"?>
<svg
   version="1.1"
   id="Layer_1"
   x="0px"
   y="0px"
   width="100%"
   viewBox="0 0 400 448"
   enable-background="new 0 0 400 448"
   xml:space="preserve"
   sodipodi:docname="alexander.svg"
   inkscape:version="1.4 (e7c3feb1, 2024-10-09)"
   xmlns:inkscape="http://www.inkscape.org/namespaces/inkscape"
   xmlns:sodipodi="http://sodipodi.sourceforge.net/DTD/sodipodi-0.dtd"
   xmlns="http://www.w3.org/2000/svg"
   xmlns:svg="http://www.w3.org/2000/svg"><defs
   id="defs17" /><sodipodi:namedview
   id="namedview17"
   pagecolor="#ffffff"
   bordercolor="#000000"
   borderopacity="0.25"
   inkscape:showpageshadow="2"
   inkscape:pageopacity="0.0"
   inkscape:pagecheckerboard="0"
   inkscape:deskcolor="#d1d1d1"
   inkscape:zoom="0.8952693"
   inkscape:cx="271.42671"
   inkscape:cy="131.80392"
   inkscape:window-width="1104"
   inkscape:window-height="899"
   inkscape:window-x="159"
   inkscape:window-y="44"
   inkscape:window-maximized="0"
   inkscape:current-layer="Layer_1" />
<path
   fill="#000000"
   opacity="1"
   stroke="none"
   d="m 135.59063,387.31366 c -3.62987,2.78793 -3.65151,5.85556 -1.51322,9.9588 3.1291,6.00458 5.92446,12.30835 8.80211,18.53186 0.76356,1.65134 0.97859,3.67249 -0.16113,5.06403 -0.98731,1.20541 -2.23005,0.49881 -2.98987,-0.82132 -1.2206,-2.12073 -2.52491,-1.43549 -3.55901,-0.0603 -2.73405,3.6358 -5.63319,3.10363 -8.75004,1.10769 -12.02463,-7.70004 -24.05811,-15.37665 -36.100947,-23.02807 -3.899853,-2.47779 -7.831249,-4.8718 -11.76158,-7.26673 -3.14562,-1.91678 -6.282241,-2.27572 -9.540598,-0.21618 -2.279572,1.44088 -4.537033,1.08014 -6.221818,-1.61185 -1.688085,-2.69724 -2.070803,-5.66242 -0.482594,-8.73752 0.213911,-0.41415 0.566028,-0.77423 0.650853,-1.22461 2.503023,-13.29004 11.772898,-18.01831 18.972542,-25.23858 2.742282,-2.7501 4.902765,-5.6236 6.205124,-9.78803 1.445544,-4.62228 2.956286,-9.26596 5.712842,-12.89893 2.202735,-2.9031 -3.23497,-4.06045 -1.042556,-6.31036 8.728452,-8.95733 2.205844,-23.37452 -5.972164,-43.75989 -6.790647,-16.92707 -9.762033,-38.28315 -17.597266,-47.97025 -4.546598,-5.62118 -3.108011,-16.39214 0.487885,-22.08506 -0.748707,-2.11975 -2.004286,-2.29288 -3.048847,-2.69644 -6.006583,-2.32065 -8.75502,-7.97757 -8.795882,-15.67765 -0.04224,-7.96029 0.109109,-15.98271 1.759273,-23.76721 2.000148,-9.43548 4.853052,-12.11001 12.443138,-11.72719 0.608022,0.0307 1.220438,-0.0874 2.294583,-0.1735 0.311753,-6.0774 0.699268,-12.0078 0.905039,-17.94895 0.60763,-17.54326 2.954812,-34.38914 10.825111,-49.226125 3.497176,-6.592826 7.947246,-11.892929 13.295372,-15.51622 16.54792,-11.21104 33.47141,-21.747154 50.99604,-29.725258 20.51641,-9.340103 41.99821,-13.880344 64.0078,-10.734764 15.55145,2.222596 29.31115,10.148716 41.41123,22.715451 7.52814,7.818485 15.63861,14.360164 23.70217,21.066715 3.67819,3.059166 7.30575,6.272308 9.59092,11.26297 2.4973,5.453995 2.24446,11.881241 3.10709,17.866911 1.71408,11.89397 4.02174,23.66844 4.13063,35.9481 0.0282,3.17715 1.25989,6.80932 3.43682,9.49006 8.02315,9.8801 12.09935,21.76429 9.77725,36.36609 -0.7256,4.56276 0.84405,5.33814 3.77498,5.73423 9.70673,1.31179 11.94352,5.6176 12.18295,18.02014 0.46307,23.98454 -13.57607,35.52182 -27.6843,32.84491 -0.59251,-0.11243 -1.21941,0.0842 -1.95669,0.1477 -0.93146,3.7285 -0.30485,7.40651 -0.49456,11.00379 -0.48765,9.24658 0.74857,18.55765 -1.29811,27.77734 -1.93227,8.70441 -5.20394,16.26242 -9.70937,22.97321 -2.79488,4.1629 -5.00935,8.69104 -7.02195,13.58978 -6.16866,15.0148 -15.92974,24.31412 -28.42744,28.92456 -1.80302,0.66516 -3.82097,0.51083 -5.81497,2.5596 6.16873,2.14813 11.8239,4.89218 17.4266,7.90463 7.05467,3.79312 10.53108,9.93558 9.57153,19.99567 -0.0469,0.49188 0.0124,0.99945 -0.002,1.49857 -0.084,2.99514 -0.001,6.02001 -0.30249,8.97805 -0.50613,4.97174 -3.73468,1.70545 -5.5998,2.75208 -9.95299,5.58539 -20.05109,10.73855 -30.15811,15.8417 -2.7464,1.38669 -4.45268,3.71186 -5.4009,7.18433 -0.11698,0.42841 -0.016,0.95825 -0.016,2.16846 4.10609,0.42321 8.06695,-0.13358 11.44382,-3.33673 2.53425,-2.40387 5.12174,-4.32398 8.17561,-5.16669 2.44202,-0.67386 4.58756,-1.93399 6.00709,-4.8299 0.54425,-1.11029 1.26865,-2.38376 2.44303,-1.87179 1.42653,0.62185 1.04664,2.39053 1.08567,3.85373 0.0429,1.60943 -0.89505,3.20926 -0.0185,4.89413 1.51624,1.15027 2.62549,-0.44333 3.83644,-1.10592 3.2771,-1.79316 6.63845,-2.67594 10.06041,-1.08979 1.74685,0.80969 2.91363,0.58026 3.8475,-1.55093 0.56042,-1.27896 1.14279,-2.94971 2.56655,-2.29782 1.61041,0.73739 0.71276,2.48028 0.58723,3.8605 -0.0774,0.85105 -0.0859,1.65909 0.64454,2.28916 1.76976,0.14691 2.391,-2.04343 3.47677,-3.28995 1.15055,-1.32089 2.38153,-3.43024 3.86045,-1.60028 1.79628,2.22271 -0.28893,3.74499 -1.243,5.32965 -1.28441,2.1333 -3.91773,2.69613 -4.2287,6.10217 1.76273,2.32474 3.91673,1.11276 5.83252,1.06796 2.6024,-0.0608 3.29804,1.96286 3.56761,4.6221 0.15281,1.50754 -0.55766,2.54477 -1.62835,2.99717 -0.87694,0.37057 -1.61831,0.22027 -2.38852,-0.79105 -2.51771,-3.30594 -8.67232,-3.32486 -11.1871,-0.16602 -0.64307,0.80774 -1.18517,1.75986 -1.85753,2.51902 -1.29808,1.4656 -2.11819,4.43286 -4.14781,3.79065 -1.99315,-0.63068 -0.83005,-3.44776 -1.22471,-5.23947 -0.23382,-1.06147 -0.72301,-1.72934 -1.90116,-1.8378 -0.96872,1.60742 -1.99412,3.44772 -3.13932,5.15063 -0.57335,0.85251 -1.32755,1.68771 -2.33881,1.02191 -0.79111,-0.52084 -0.92922,-1.48657 -0.88182,-2.54696 0.0368,-0.8237 0.29802,-1.88684 0.007,-2.4318 -0.938,-1.75702 -1.20791,-5.08645 -3.58942,-4.17935 -2.13598,0.8136 -1.51698,3.35986 -1.12877,5.50366 1.06221,5.8657 0.4613,5.24454 -4.03501,5.49173 -5.33427,0.29328 -4.65944,-3.05273 -4.31163,-7.28598 0.15189,-1.84866 0.23321,-3.92654 -1.37419,-4.74185 -1.80182,-0.91391 -3.15462,0.31507 -4.34919,2.56339 1.94912,2.54245 2.4664,5.25381 -0.0492,7.8229 -2.21209,2.25916 -4.19823,4.03253 -6.95021,0.59369 -1.60744,-2.00864 -3.79802,-1.66498 -5.14718,1.37689 -0.60015,1.35321 -0.87221,3.27991 -2.89773,3.10038 -0.70417,-8.37131 -5.05756,-5.57523 -8.89576,-4.76642 -1.55574,0.32782 -3.30708,0.96872 -4.42534,-1.25382 -0.069,-1.91849 1.01596,-2.44684 1.93176,-2.7835 2.84709,-1.04676 5.82326,-1.5105 5.3786,-7.09186 -0.18342,-2.30231 2.7511,-1.23838 3.28467,-3.28827 -0.32009,-0.89362 -0.86658,-0.94861 -1.30841,-0.63422 -5.39081,3.83576 -11.57511,3.50818 -17.27863,5.67816 -0.83636,0.31818 -1.62075,0.89102 -2.40879,1.39994 -2.45091,1.58267 -4.94076,1.85565 -7.24922,-0.21314 -2.25077,-2.01703 -2.76595,-5.25162 -2.33705,-8.46768 0.56676,-4.2497 1.55475,-8.4025 2.33876,-12.60425 0.9413,-5.04483 -4.42552,-14.2486 -8.27384,-14.2254 -0.88804,0.005 -1.33398,0.83328 -1.82042,1.59894 -3.01107,4.73935 -5.9915,9.51284 -9.04969,14.19982 -1.0431,1.5987 -0.70667,3.00956 -0.0754,4.57367 1.30681,3.23801 2.53271,6.53302 3.88063,9.741 0.93153,2.21701 1.28832,4.25076 -0.1876,6.10526 -2.43488,0.22296 -2.00517,-3.39777 -3.97038,-4.19986 -2.9141,5.56189 -6.71988,5.98086 -11.0298,2.41461 -1.05055,-0.86929 -1.89888,0.35721 -2.8405,0.74573 -4.91724,2.02917 -7.74968,-0.64096 -7.75732,-7.29462 -0.003,-2.83127 -0.32761,-5.82404 0.2513,-8.45981 1.12679,-5.1304 -0.59816,-8.12396 -3.58286,-10.71747 -3.82673,-3.32519 -7.51639,-6.87356 -10.60454,-11.39715 -2.08528,-3.05457 -3.60206,-0.25446 -5.44069,1.28253 m 156.7535,-112 c 0.91729,-8.41931 1.36707,-16.87579 1.22817,-25.38365 -0.0434,-2.659 -0.51683,-5.17752 -2.54126,-6.19368 -1.82413,-0.91561 -3.90612,-0.84775 -5.41205,1.05525 -2.96222,3.74327 -3.67973,0.64638 -4.12594,-2.31569 -1.66916,-11.08083 -0.78424,-22.2037 -0.0433,-33.30748 0.0776,-1.16208 0.36131,-2.35379 2.1386,-2.1627 1.87942,10.19371 -1.70518,20.74392 0.15945,31.20532 3.13571,0.0606 3.97085,-2.87596 5.36927,-5.84172 -3.8011,0.25256 -3.44589,-2.7132 -2.25436,-5.11966 3.21266,-6.48833 2.4488,-13.43793 1.73779,-20.32837 -1.58442,-15.3544 -2.71177,-30.75455 -3.17767,-46.23126 -0.18913,-6.28241 -0.7557,-7.08297 -5.52536,-7.33686 -2.20528,-0.11737 -3.68315,1.09493 -4.69945,3.44388 -2.35615,5.44556 -2.67404,11.24852 -1.98409,17.36118 1.06177,9.40713 4.13309,17.78244 7.335,26.13875 0.66431,1.73376 2.02707,3.69033 -0.0775,5.8367 -2.20893,-2.63414 -3.06448,-6.22193 -4.22148,-9.37072 -4.96734,-13.51852 -9.58307,-27.2223 -3.40971,-42.31939 0.87081,-2.12955 -0.15505,-3.38776 -1.16872,-4.73453 -4.40593,-5.85381 -4.29636,-13.20546 -3.89562,-20.60548 0.0661,-1.21959 0.66158,-2.17663 1.99715,-1.74579 1.10374,2.53611 0.33264,5.42497 0.53673,8.15757 0.31814,4.26056 1.01854,8.24535 3.59701,11.20539 1.15939,1.33093 2.49022,2.75131 4.11177,1.85055 1.59964,-0.88856 1.24398,-3.14018 1.23367,-4.88008 -0.0431,-7.28178 -2.83601,-13.05717 -6.36483,-18.23073 -8.92855,-13.09005 -18.61008,-25.1869 -29.14794,-36.046612 C 227.2751,72.447021 208.42564,63.058842 187.6294,60.363571 c -15.0236,-1.947113 -30.07343,-0.645626 -45.10307,0.143974 -4.57052,0.240117 -9.15577,0.99651 -13.66024,2.054017 -3.30214,0.775241 -6.83992,1.344959 -9.02064,5.641685 -0.47018,0.926407 -1.7406,1.499344 -2.68831,1.61985 -7.40835,0.942047 -13.59571,5.573715 -19.341287,11.190834 -6.403584,6.260399 -11.085392,14.286797 -13.58813,25.533929 4.18134,-3.98197 7.795062,-7.095048 11.105908,-10.684426 2.470612,-2.678459 6.078939,-2.007095 8.199119,-4.822945 4.32431,-5.743187 9.31723,-10.370468 14.08506,-15.366218 7.08764,-7.426453 14.9434,-12.739457 24.20101,-13.713066 11.07876,-1.165146 22.16512,-1.150719 33.26948,-0.630696 6.84221,0.320427 13.37913,1.984516 19.72876,5.336758 11.60708,6.127853 22.92386,13.07698 33.88396,20.932983 12.02206,8.617195 22.91415,19.33169 32.52024,32.16881 1.21168,1.61923 2.99329,3.21082 2.09195,6.10363 -1.85254,0.68453 -2.42898,-1.11636 -3.30701,-2.20632 -2.21788,-2.75329 -4.41872,-5.53024 -6.64803,-8.26766 C 236.88904,95.175827 216.86464,82.685043 196.50244,70.968498 189.4172,66.891602 181.9497,65.018669 174.17386,65.10144 c -8.67799,0.09239 -17.35837,-0.159294 -26.03588,-0.0378 -8.82038,0.123505 -17.30137,2.213684 -24.58074,9.249955 -4.30395,4.16024 -8.30597,8.851913 -12.59835,13.034126 -2.22893,2.171707 -3.99605,4.26667 -2.59179,8.630997 -4.10793,-0.511658 -5.4681,2.925377 -6.7129,6.491062 -1.21635,3.48413 -2.628531,6.89508 -3.524847,10.51941 -6.893973,27.8763 -13.757551,55.76642 -20.453857,83.7244 -1.71961,7.17958 -3.248418,14.28446 -6.896224,20.39278 -5.534744,9.2681 -4.946126,12.14748 1.744252,21.54508 12.131301,17.04016 5.655569,15.73634 6.795702,21.65733 4.899203,25.44272 10.252406,20.79522 17.827537,39.70692 5.792807,14.46203 14.514547,33.89262 23.965307,41.09584 2.39066,1.82218 4.24252,4.12467 5.10859,7.72458 0.58508,2.43201 1.76529,4.5715 3.60941,5.5899 3.75508,2.07364 7.57357,3.94703 11.5547,5.20673 12.94646,4.09656 26.03487,0.2626 39.03721,1.21732 1.29342,0.095 2.52559,-0.51908 3.60712,-1.46265 0.86334,-0.75314 1.83334,-1.73309 1.27861,-3.23248 -1.61075,-4.35355 0.73642,-4.39038 2.84919,-4.57382 15.7712,-1.36921 31.53314,-2.79722 47.35871,-2.91385 15.23167,-0.11225 26.90438,-9.74182 36.06053,-24.9495 4.3314,-7.19412 8.36396,-14.72644 12.19973,-22.389 3.8766,-7.74424 8.42595,-15.22144 8.5678,-26.01514 M 290.131,117.46028 C 286.3829,106.30326 280.75772,96.920917 274.07876,88.538616 258.87016,69.451412 240.76714,56.315334 221.66968,45.27998 c -5.23332,-3.024033 -10.37177,-7.258946 -16.01983,-7.935658 -13.6869,-1.639881 -27.07748,1.844227 -40.3281,6.244427 3.04156,0.297588 6.11315,-0.120362 9.09814,0.366543 17.22708,2.810039 30.98731,16.58903 47.72458,22.455485 10.4572,3.665279 23.55292,13.536332 31.30132,23.68313 8.00994,10.489323 16.57938,7.147041 24.32498,17.955373 4.1096,5.73462 7.36682,12.34292 8.00085,20.56206 0.22874,2.96497 -0.063,6.63491 1.16025,8.681 1.76511,2.95246 1.86459,5.12458 0.56805,8.03282 -0.46161,1.0354 -0.51749,2.30201 0.10099,3.30767 0.76788,1.24855 1.80482,0.89895 2.82152,0.5695 2.95991,-0.95914 2.95364,-4.23163 3.1319,-7.15213 0.50644,-8.29771 -0.97413,-16.18734 -3.42333,-24.58992 m -28.40527,-11.9946 c 7.54343,9.84436 16.07795,18.57096 20.37256,32.44809 1.44647,-2.50305 1.23042,-4.31781 1.14911,-6.14873 -0.43669,-9.83593 -4.69256,-17.0568 -9.62454,-23.73342 -5.66089,-7.66342 -12.03643,-14.383919 -17.4237,-22.420235 -7.26633,-10.839371 -16.46062,-17.785797 -26.86972,-22.017765 -14.9699,-6.086235 -30.37117,-9.890804 -45.60378,-14.603699 -11.31772,-3.501648 -22.29563,0.909455 -33.46484,-0.0097 -4.04294,-0.332715 -8.33431,4.480937 -12.61952,7.009548 0.93177,1.634697 1.71388,1.570957 2.47341,1.47874 15.37727,-1.866962 30.77112,-2.496135 46.17581,-0.730426 12.90125,1.478771 25.40972,5.116394 37.22376,12.26934 14.42278,8.732453 26.64532,21.414902 38.21145,36.458267 M 125.37197,355.60745 c -1.67289,-1.36624 -2.92629,-3.13864 -3.4964,-5.69345 -1.72951,-7.75039 -7.16281,-9.34854 -11.56905,-12.77109 -1.69367,3.01496 -1.73911,5.55655 -0.86189,8.16736 1.1764,3.50131 2.39159,6.98071 3.61126,10.45688 3.89934,11.11356 10.83711,19.53116 15.57921,29.9003 1.16083,2.53833 2.45825,1.44855 3.81417,0.17249 4.13558,-3.89203 8.32146,-7.69278 12.46098,-11.57773 3.03417,-2.8476 6.6825,-4.5781 9.50648,-8.69257 -9.96884,-2.16345 -19.8957,-2.74551 -29.04476,-9.96219 m 67.58355,-0.17569 c -3.84404,2.80023 -6.74509,7.52301 -11.29158,8.9567 -4.17228,1.3157 -8.49092,-1.61249 -12.91545,0.34326 10.02819,9.27881 18.4138,20.22876 29.24751,27.7153 0.48414,-2.52954 1.09241,-4.86786 1.3613,-7.27093 0.78874,-7.04932 1.30155,-14.15445 2.18265,-21.18213 1.27432,-10.16397 0.92829,-10.75128 -7.03812,-9.53647 -0.36624,0.0559 -0.71338,0.32522 -1.54631,0.97427 M 274.38853,83.936508 c 5.40906,6.171059 9.55659,13.890396 14.15573,20.879612 1.50623,-1.28704 1.09794,-2.50365 1.09656,-3.62319 -0.0117,-9.563635 -4.02623,-15.570867 -10.01698,-20.240408 -7.97736,-6.21804 -16.13132,-12.097252 -23.35432,-19.871189 -8.24736,-8.876446 -17.59939,-15.241707 -27.68614,-19.733806 -2.47813,-1.103627 -5.12457,-1.563023 -7.69362,-2.318593 -0.0643,0.415158 -0.12862,0.830315 -0.19292,1.245472 2.85303,1.790863 5.70912,3.573513 8.55861,5.373955 16.11156,10.179993 31.7062,21.403549 45.13308,38.288147 m 21.80323,75.577642 c -1.0665,-1.75751 -1.93916,-4.85966 -3.92858,-3.72777 -2.11637,1.2041 -0.54593,4.15013 -0.46653,6.33288 0.0358,0.98442 0.28493,1.95786 0.45356,2.93146 2.44719,14.12917 4.7943,28.26112 3.91145,42.92537 -0.15286,2.53871 -1.05454,5.16104 0.1127,8.20698 1.46952,-1.63784 2.98896,-2.81629 2.24221,-5.7028 -0.27303,-1.05539 -0.0803,-1.96584 0.46201,-2.76855 3.63235,-5.3767 3.99439,-12.02837 3.98796,-18.65497 -0.0101,-10.40961 -2.7195,-19.8926 -6.77478,-29.5426 m -220.75207,6.23133 c 0.228115,-3.95855 -2.098593,-4.22633 -4.068363,-4.33332 -3.14164,-0.17067 -5.860386,1.40531 -6.98626,5.51599 -2.6182,9.55922 -3.200489,19.49849 -2.234743,29.49437 0.580144,6.00483 5.160621,9.28984 9.795965,7.37994 -0.683802,-2.68439 -1.564603,-5.18727 -3.113612,-7.21866 -3.307619,-4.3376 -3.991006,-9.86696 -4.116071,-15.60495 -0.07379,-3.38548 0.852993,-6.31573 3.310266,-7.81041 2.402154,-1.46113 4.642858,-0.75178 6.64248,2.14682 0.270133,-3.15018 0.509735,-5.94435 0.770338,-9.56978 m 3.002154,-2.45271 c -0.348126,2.7487 -0.574944,5.49435 -0.09187,8.47702 2.10505,-0.56601 2.867722,-2.15439 3.397809,-4.41696 2.310295,-9.86112 4.772428,-19.66136 7.12151,-29.50728 1.665578,-6.98108 3.238549,-13.99983 4.852865,-21.00178 -8.095539,13.60331 -15.728811,27.37432 -15.280312,46.449 M 91.93294,112.85671 c 3.49069,-4.61951 7.264818,-8.9964 8.35724,-16.408399 -4.140842,2.53553 -7.051569,6.339329 -10.414289,9.264269 -2.939995,2.55722 -4.405259,5.7073 -4.159825,10.39022 0.151382,2.88846 0.113432,6.08178 -3.392287,5.04616 -1.040832,-0.30747 -1.454875,0.81651 -1.530521,1.70721 -0.326156,3.84056 -1.391209,7.65584 -0.421743,12.80472 3.947797,-8.06508 6.881405,-15.79479 11.561425,-22.80418 m 218.26045,87.69 c -5.26422,3.74034 -6.40811,11.00439 -8.8437,17.26017 5.25248,-4.98944 10.09824,-10.54133 16.60195,-12.44769 0.85548,-0.25075 1.41641,-1.47018 1.23792,-2.77603 -0.18869,-1.38051 -1.07644,-1.7748 -1.99923,-1.84631 -2.13888,-0.16573 -4.28148,-0.25025 -6.99694,-0.19014 m -19.92719,-5.19223 c 0.46413,4.65643 0.774,9.35745 2.42498,15.02673 1.19202,-15.12592 0.1734,-28.57594 -3.4756,-41.63455 -0.76294,8.67012 0.38796,17.16841 1.05062,26.60782 m 6.12091,40.44087 c 0.44015,2.70375 1.6855,4.44328 3.79166,4.72391 1.4407,0.19192 2.29172,-1.16773 2.80939,-2.78904 0.60191,-1.88511 1.10769,-3.93597 -0.35098,-5.45288 -2.28849,-2.3798 -3.89803,-5.08589 -2.95271,-10.35955 -3.86176,4.26017 -3.43343,8.72627 -3.29736,13.87756 m 3.70268,-75.78406 c 3.57089,8.13283 4.52037,17.44656 6.52977,27.30089 2.73317,-8.73137 -0.76654,-25.03633 -5.66749,-29.06712 -0.97266,-0.79996 -1.38755,-0.20263 -0.86228,1.76623 M 74.179823,197.54073 c 1.715116,-3.71813 1.986481,-7.91291 2.337704,-12.17492 -1.094426,1.78176 -1.894616,3.75112 -3.130585,5.32358 -1.920589,2.44345 -1.796668,4.85735 0.792881,6.85134 z"
   id="path1"
   style="stroke-width:0.875139"
   sodipodi:nodetypes="cssssscsssssssssssscsssscsssssssssscsssscssssscsscccsscssssscssssscssscsssssssscssscssssscssscsccsccscssscssssccsccsssccssssscccssssssscssssccssssssssscscsssssssscssssssscsssssssssssssscsssccssscssssssssssccccsssssccssccscssssscccsccsssccccsssccsccsssscscsccssscsssccccssccccssssccccsssccccccsssccccscccsc" />
    <path
   fill="#000000"
   opacity="1"
   stroke="none"
   d="m 269.2456,402.92102 c -0.084,0.65115 -0.12655,0.99454 -0.2582,1.24561 -0.79253,1.51168 -1.70653,2.95965 -3.11332,1.48169 -0.70833,-0.74424 -0.76361,-2.18955 -0.008,-2.98676 1.03124,-1.0878 2.22626,-2.85202 3.37936,0.25946 z"
   id="path2"
   style="stroke-width:0.843455" />
    <path
   fill="#000000"
   opacity="1"
   stroke="none"
   d="m 171.44317,228.61398 c -1.01922,4.44124 -0.6391,8.96221 -2.16808,12.8277 -1.86241,-0.33083 -1.80541,-2.0153 -1.63798,-3.72678 0.24153,-2.46905 0.54477,-4.9261 0.79185,-7.39416 0.47504,-4.74507 -1.35666,-6.9854 -4.61353,-5.76302 -2.50369,0.9397 -2.99834,3.99077 -3.67628,6.79175 -0.67788,2.80068 0.99074,3.25968 2.25328,4.10758 1.1813,0.79335 1.59332,2.40709 1.93824,4.00805 1.34539,6.24489 2.71457,12.48117 3.97524,18.76021 1.71119,8.52295 6.97151,10.43381 11.5024,3.96307 3.66895,-5.23983 6.55208,-11.37402 9.5668,-17.35206 1.28164,-2.54141 2.56991,-5.1911 4.6974,-5.82555 1.59,0.39328 1.14899,2.87615 2.84739,3.35851 1.90365,-2.9137 1.24865,-6.43708 0.55713,-9.79941 -0.27244,-1.32469 -1.32244,-0.94089 -2.17452,-0.67868 -3.19635,0.98355 -5.48851,3.73015 -7.41526,7.2583 -0.77686,1.42258 -1.48164,3.40671 -3.08494,2.36822 -1.4851,-0.96191 -1.2031,-3.05638 -1.04746,-4.86135 0.73492,-8.52332 2.71013,-16.53905 5.28472,-24.25843 2.46291,-7.38449 5.06999,-14.67465 7.65487,-21.97747 0.44736,-1.26392 0.77566,-2.95392 2.42671,-2.51302 1.0741,2.21938 -0.23876,3.95879 -0.86019,5.72075 -3.73497,10.59003 -7.5952,21.09511 -10.07978,32.45497 -0.417,1.90656 -0.93866,3.74042 -0.32944,6.26942 2.47043,-1.41969 4.78005,-2.90539 7.16764,-4.07713 2.71261,-1.33122 4.98211,-1.0616 5.42278,3.98886 0.0695,0.7964 0.20825,1.98006 0.58764,2.26348 5.01013,3.74263 3.75508,10.04184 2.63562,15.3901 -1.05446,5.03766 -0.65952,9.40364 0.5291,13.99263 0.36297,1.40137 0.79705,2.82096 -0.38929,4.93445 -3.63877,-4.11444 -2.76079,-10.88312 -4.88594,-16.08455 -2.79903,2.00098 -3.98315,5.6082 -5.14826,9.11446 -0.41991,1.26373 0.0376,2.96246 1.17295,3.07147 4.60722,0.44217 5.2111,6.15335 6.69108,10.32239 0.97905,2.75796 1.16609,5.19903 3.79195,6.77154 4.76076,2.85095 5.2875,18.00528 1.20637,22.64704 -1.64387,1.86969 -6.41607,-1.40601 -7.03927,-4.94629 -0.25257,-1.43476 -0.24091,-2.97257 -0.28215,-4.46717 -0.0645,-2.33807 -0.62693,-3.88717 -2.55295,-3.5993 -2.47171,0.36945 -4.71857,-0.8877 -6.80376,-2.40091 -3.61757,-2.62518 -0.38752,-13.29791 -5.24212,-12.86432 -0.54914,0.20718 -2.06349,-5.20475 -7.22224,0.71289 -1.88657,-13.4114 1.18758,-3.34241 -2.55392,-2.9552 -13.9631,1.44506 -9.84241,-3.01799 -11.94149,-2.85985 -5.71595,0.43075 -4.12766,16.68804 -9.9153,13.69878 -1.35004,-0.69733 -6.58748,4.87189 -7.22231,7.38413 -1.0362,4.10043 -2.56976,7.67407 -4.89098,10.62969 -3.88185,-6.55084 -4.16276,-14.02493 -2.14519,-20.95831 3.55962,-12.23269 9.85105,-20.78216 17.3679,-27.96777 1.24423,-1.18941 1.92876,-2.49967 1.19672,-4.55426 -0.8938,-2.50861 -0.10216,-5.65296 -1.66886,-8.47203 -5.09139,4.66165 -7.41174,12.19029 -10.28172,19.04756 -2.35949,-2.12302 -1.39287,-4.32015 -0.70401,-6.04608 3.88494,-9.73363 8.17385,-19.12169 13.00305,-27.98293 2.35675,-4.32445 5.78774,-5.98599 9.50549,-5.04196 2.591,0.65791 3.29332,-0.74013 3.89692,-3.81207 0.70564,-3.59136 1.11363,-7.33678 3.4601,-10.11948 1.42425,-1.68902 1.06131,-4.96484 1.13571,-7.61513 0.21934,-7.81366 -0.13926,-15.65889 0.65683,-23.4412 0.15935,-1.55779 -0.16806,-3.47165 1.49223,-3.96297 1.56393,0.84546 1.15245,2.80756 1.0193,4.25786 -0.98758,10.75665 -0.0918,21.65226 -1.2705,32.38872 -0.32675,2.97624 -0.79592,5.45745 -2.71327,7.66835 -2.45271,2.82817 -2.25941,7.84153 -3.47442,12.20591 z"
   id="path3"
   style="stroke-width:0.843455"
   sodipodi:nodetypes="ccsssssssssccssssssscsscsscssccscsssssssccscsscsssccssssssscsssc" />
    <path
   fill="#000000"
   opacity="1"
   stroke="none"
   d="m 236.73523,225.10236 c 4.74907,0.003 8.98311,-1.34493 13.16101,-3.35822 3.13553,-1.51094 5.82737,-3.46635 7.09287,-8.19809 0.41458,-1.55005 1.11577,-3.90678 2.79097,-2.49777 1.20479,1.01333 0.85467,2.85853 0.14516,4.42631 -0.30586,0.67589 -0.66587,1.46186 -0.68374,2.21276 -0.22242,9.34315 -1.35633,11.60153 -7.50172,14.42389 -1.79627,0.82498 -3.63304,1.4784 -5.45715,2.18019 -1.46624,0.56411 -2.98859,0.9351 -4.33628,2.81695 3.35866,5.81725 9.17409,4.61562 13.22511,8.51708 -1.30418,2.52311 -2.70109,1.82788 -3.87416,1.44569 -5.11164,-1.66528 -10.10857,-3.73315 -13.52136,-9.98541 -1.31,-2.39993 -3.35544,-2.21074 -5.15484,-2.79746 -9.3637,-3.05308 -14.76278,-12.82307 -14.17889,-25.80944 0.0706,-1.57027 -0.23198,-3.84487 1.47555,-3.79274 1.7959,0.0548 1.37943,2.24586 1.18349,3.81779 -0.92123,7.39067 1.39415,12.87085 5.14001,17.53247 1.31141,1.63199 2.55001,2.73874 4.33964,0.75641 1.6569,-1.83528 3.90786,-0.9149 6.15433,-1.69041 z"
   id="path4"
   style="stroke-width:0.843455" />
    <path
   fill="#000000"
   opacity="1"
   stroke="none"
   d="m 121.24498,143.02399 c -1.26596,-1.62847 -3.363,-0.16851 -4.48122,-2.30063 -0.30977,-3.34891 2.30032,-2.28462 3.14308,-4.3508 -2.41606,-4.08431 0.13733,-6.165 1.98723,-8.58203 2.03814,-2.66297 4.15113,-1.8923 6.16949,-0.0823 5.49971,4.93197 9.80796,11.68075 14.32454,18.19092 2.73318,3.93958 4.15359,8.51728 5.8964,13.63865 -2.97694,0.48294 -4.53067,-2.38666 -6.36604,-3.99198 -4.07562,-3.5648 -8.39758,-6.6257 -11.90985,-11.42131 -1.1796,-1.61061 -2.79959,-2.36438 -4.53218,-0.77142 -1.20291,1.10597 -2.51634,0.39302 -4.00628,-0.28572 -0.24971,-0.0713 -0.22517,-0.0434 -0.22517,-0.0434 z"
   id="path5"
   style="stroke-width:0.843455" />
    <path
   fill="#000000"
   opacity="1"
   stroke="none"
   d="m 236.87501,200.28433 c -5.17184,-0.58464 -9.24768,-5.0197 -14.09055,-5.56651 -0.64783,-2.89707 0.96827,-3.22336 2.05042,-3.86153 5.42522,-3.19932 11.07934,-5.02046 16.969,-4.05478 5.68293,0.93177 10.39862,4.42238 13.11246,12.11964 0.49479,1.36695 1.26658,2.69043 0.23684,4.2358 -0.89176,1.33832 -1.9674,0.58513 -2.97323,0.0807 -4.8627,-2.4385 -9.97729,-2.46107 -15.30494,-2.95335 m 6.16569,-7.4915 c -1.50705,-0.48041 -2.29943,0.62137 -2.39133,2.53261 -0.10187,2.11867 1.18176,2.20726 2.2169,2.24155 1.57559,0.0521 3.19742,0.54278 4.87937,-0.30674 -0.87079,-2.9127 -2.60157,-3.49997 -4.70494,-4.46742 z"
   id="path6"
   style="stroke-width:0.843455" />
    <path
   fill="#000000"
   opacity="1"
   stroke="none"
   d="m 118.52023,169.96925 c 1.45032,-9.72966 7.12595,-10.51414 12.00889,-8.97334 5.24466,1.65495 10.57704,3.50493 15.45912,6.95235 1.35341,0.95569 3.20063,1.47259 2.794,4.84657 -0.3826,3.17461 -1.51866,4.02715 -3.7073,4.67747 -8.54322,2.53847 -15.85205,-0.42457 -21.94898,-8.40347 -1.91412,-0.76312 -2.42825,5.43355 -4.60573,0.90042 m 13.30608,2.30995 c 3.02509,2.03748 6.07618,3.50527 9.74205,1.2571 -1.34363,-2.68794 -3.10438,-3.37549 -4.5379,-4.63589 -2.52518,-2.22022 -4.4268,-1.53975 -5.20415,3.37879 z"
   id="path7"
   style="stroke-width:0.843455" />
    <path
   fill="#000000"
   opacity="1"
   stroke="none"
   d="m 146.57403,192.60416 c -3.48456,2.19816 -6.86881,3.85603 -7.08735,10.20187 -0.0693,2.01199 -1.80649,2.95212 -3.12046,3.73492 -9.86727,5.87847 -22.37358,-6.67906 -21.59213,-21.68646 0.0295,-0.56659 0.3915,-1.09897 0.70529,-1.92993 2.56737,1.95537 2.10647,5.4292 2.89912,7.93608 0.77834,2.46158 1.04162,5.2634 3.84448,3.72422 1.1109,-0.61005 2.25549,0.67045 3.33899,1.33241 5.04491,3.18224 9.81765,4.05777 14.44167,-1.84578 3.02017,-3.8559 7.02602,-5.43544 10.95524,-6.81853 1.11619,-0.39288 2.32969,-0.82179 3.73246,1.03188 -2.05737,3.46049 -5.35296,2.53331 -8.11731,4.31932 z"
   id="path8"
   style="stroke-width:0.843455" />
    <path
   fill="#000000"
   opacity="1"
   stroke="none"
   d="m 185.14639,148.03752 c -2.55411,-2.22011 -5.69352,-0.90634 -8.41278,-3.65893 3.00859,-2.89043 5.76473,-2.01174 7.78939,-0.24833 7.43937,6.47945 15.31039,7.36272 23.82253,6.27599 5.61051,-0.71629 11.16339,2.26479 16.52381,4.92189 1.62042,0.80324 3.06062,1.99092 1.65244,5.25671 -7.89779,-5.99794 -16.31255,-7.31373 -24.99622,-6.27774 -5.91418,0.7056 -11.1837,-1.82527 -16.37917,-6.26959 z"
   id="path9"
   style="stroke-width:0.843455" />
    <path
   fill="#000000"
   opacity="1"
   stroke="none"
   d="m 249.70425,180.60861 c -4.06567,-0.81439 -7.64811,-3.66505 -11.63689,-2.179 -0.84086,0.31326 -1.75023,0.28867 -2.11994,-1.04365 -0.37262,-1.34278 0.40738,-2.02439 1.05642,-2.80213 5.00139,-5.99324 11.11301,-5.59434 15.75986,1.16965 0.74905,1.09033 2.08512,0.8994 2.62683,2.85918 -1.23437,3.19372 -3.38533,2.37762 -5.68628,1.99595 z"
   id="path10"
   style="stroke-width:0.843455" />
    <path
   fill="#000000"
   opacity="1"
   stroke="none"
   d="m 170.38619,296.93713 c 5.91766,-0.007 11.36688,0.50811 16.77158,-0.6345 1.00255,-0.19693 1.68825,0.0551 1.90494,1.49707 0.22284,1.48291 -0.46491,2.3425 -1.35374,2.35776 -10.2283,0.17529 -20.58162,2.67917 -30.51222,-2.97208 -0.9107,-0.51825 -2.11497,-0.86743 -2.28736,-3.72235 5.23577,0.79349 10.06944,4.26514 15.4768,3.4741 z"
   id="path11"
   style="stroke-width:0.843455" />
    
    <path
   fill="#000000"
   opacity="1"
   stroke="none"
   d="m 214.83749,188.14944 c 1.42946,-1.70922 1.9364,-0.39695 1.9788,1.03029 0.11668,3.92823 1.30117,6.99556 3.32278,9.59142 0.61687,0.79211 1.15566,1.98926 0.41105,3.05893 -0.83948,1.20598 -1.77865,0.6242 -2.48335,-0.44795 -2.3925,-3.64 -4.30934,-7.55195 -3.22928,-13.23269 z"
   id="path13"
   style="stroke-width:0.843455" />
    <path
   fill="#000000"
   opacity="1"
   stroke="none"
   d="m 140.79538,179.12152 c 0.96108,0.1568 1.81483,0.26866 1.77804,1.54297 -0.038,1.31805 -0.86609,2.08133 -1.68193,2.19162 -2.86922,0.38785 -5.76699,0.90012 -8.66126,-1.52921 2.76721,-0.73524 5.53442,-1.47049 8.56515,-2.20538 z"
   id="path14"
   style="stroke-width:0.843455" />
    <path
   fill="#000000"
   opacity="1"
   stroke="none"
   d="m 258.28897,180.9424 c 3.10155,-0.75423 3.81522,1.25984 2.53776,6.94092 -1.79968,-0.60537 -3.41819,-1.64476 -4.78699,-3.2549 0.11763,-2.10883 1.62935,-2.10742 2.24923,-3.68602 z"
   id="path15"
   style="stroke-width:0.843455" />
    <path
   fill="#000000"
   opacity="1"
   stroke="none"
   d="m 178.1849,244.10083 c -1.43959,-0.14058 -2.67062,0.0484 -3.40366,-1.63428 1.99224,-3.38533 4.29923,-3.3695 6.68128,0.0641 -0.57819,2.07393 -1.89611,1.40302 -3.27762,1.57015 z"
   id="path16"
   style="stroke-width:0.843455" />
    <path
   fill="#000000"
   opacity="1"
   stroke="none"
   d="m 121.20751,142.9832 c 1.54804,3.96236 -1.16144,4.23674 -2.5361,5.53116 -0.51983,0.48948 -1.08877,-0.24105 -1.36356,-1.07683 -0.35301,-1.0737 -0.15814,-2.03542 0.5305,-2.56622 0.9198,-0.709 1.92432,-1.20084 3.14954,-1.81662 0.25709,-0.0307 0.23255,-0.0586 0.21962,-0.0715 z"
   id="path17"
   style="stroke-width:0.843455" />
</svg>
