<svg xmlns="http://www.w3.org/2000/svg" width="512" height="100" viewBox="188 0 892 718" version="1.1">
    <path d="M 805.500 29.690 C 800.005 30.404, 781.599 34.151, 774 36.101 C 769.875 37.160, 761.775 40.341, 756 43.170 C 743.197 49.442, 736.282 56.045, 730.417 67.596 C 726.616 75.084, 726.495 75.642, 726.320 86.406 C 726.195 94.111, 725.467 100.096, 723.935 106 C 721.991 113.490, 721.791 116.222, 722.249 129 C 722.690 141.295, 723.172 144.640, 725.422 151 C 727.132 155.832, 728.053 160.457, 728.011 164 C 727.936 170.285, 730.648 185.806, 734.419 200.681 C 735.839 206.281, 737 211.335, 737 211.912 C 737 212.490, 735.875 213.244, 734.500 213.589 C 732.960 213.976, 732 214.927, 732 216.068 C 732 218.305, 736.639 222.842, 739.740 223.637 C 741.350 224.050, 742.273 225.377, 743.024 228.356 C 743.598 230.635, 744.952 234.903, 746.034 237.839 C 748.896 245.611, 748.681 248.822, 745.250 249.527 C 743.737 249.838, 739.350 250.950, 735.500 251.998 C 708.330 259.396, 695.773 262.449, 676 266.466 C 641.784 273.418, 629.966 277.733, 623.030 285.809 C 620.814 288.389, 616.532 293.875, 613.514 298 C 605.938 308.356, 594.194 320.949, 576.399 337.799 C 557.394 355.795, 550.624 361.519, 545.305 364.094 C 541.128 366.116, 531.095 375.421, 526.212 381.800 C 522.873 386.162, 517.608 389.120, 505.500 393.436 C 483.031 401.444, 463.339 405.847, 459.586 403.703 C 458.024 402.811, 442.743 402.566, 398.776 402.730 C 360.825 402.872, 338.363 402.580, 335.276 401.904 C 332.649 401.330, 327.706 400.615, 324.292 400.316 C 318.781 399.833, 317.324 400.128, 311.317 402.939 C 307.596 404.680, 303.107 407.206, 301.342 408.552 C 299.577 409.899, 297.316 411.007, 296.317 411.016 C 287.481 411.092, 257.955 420.928, 241.476 429.285 C 232.337 433.920, 228.918 437.701, 218.677 454.500 C 213.983 462.200, 205.836 474.539, 200.571 481.920 C 188.408 498.974, 187.916 503.216, 197.784 505.957 C 206.703 508.434, 213.889 506.145, 220.790 498.630 L 225.079 493.959 228.773 496.729 C 230.805 498.253, 236.054 502.351, 240.437 505.836 C 254.497 517.014, 262.505 519.586, 267.545 514.545 C 268.895 513.195, 270.052 511.283, 270.115 510.295 C 270.179 509.308, 270.291 507.876, 270.365 507.113 C 270.469 506.050, 280.014 502.537, 280.623 503.338 C 280.690 503.427, 281.453 504.850, 282.317 506.500 C 284.853 511.342, 290.710 516.999, 293.716 517.509 C 297.696 518.186, 341.923 520.168, 358.500 520.413 C 366.200 520.527, 387.435 521.003, 405.688 521.471 C 430.263 522.100, 444.328 521.980, 459.884 521.007 C 476.958 519.940, 485.164 519.927, 503.697 520.942 L 526.500 522.190 544 518.086 C 570.027 511.982, 580.875 508.005, 589.816 501.289 C 591.639 499.919, 593.307 498.973, 593.521 499.188 C 593.735 499.402, 594.397 506.535, 594.992 515.039 C 595.587 523.542, 597.160 538.150, 598.486 547.500 C 603.029 579.513, 604.132 594.180, 604.088 622 C 604.065 636.575, 603.756 653.675, 603.402 660 C 602.829 670.234, 604.025 698.448, 605.638 712.750 L 606.230 718 610.986 718 L 615.742 718 616.268 684.250 C 616.933 641.647, 618.903 620.864, 626.577 575.500 C 627.973 567.250, 629.989 556.154, 631.057 550.843 C 633.318 539.605, 633.535 528.579, 631.634 521.500 C 630.895 518.750, 628.229 511.301, 625.709 504.946 C 623.189 498.591, 620.112 489.939, 618.870 485.719 L 616.613 478.047 618.943 469.986 C 622.240 458.576, 621.534 453.371, 614.886 440.090 C 610.614 431.554, 609.493 428.197, 608.655 421.437 C 607.746 414.097, 607.873 412.318, 609.817 405.226 C 612.421 395.725, 612.646 390.185, 610.463 389.347 C 607.047 388.037, 603.243 395.296, 598.493 412.189 C 596.778 418.289, 588.763 429.472, 584.471 431.752 C 583.176 432.440, 580.686 435.686, 578.938 438.965 C 577.190 442.244, 574.057 446.772, 571.975 449.027 C 568.457 452.838, 567.920 453.080, 564.345 452.463 C 562.230 452.098, 558.799 450.944, 556.719 449.900 C 551.907 447.482, 550.292 447.505, 549.500 450.001 C 549.017 451.521, 550.476 453.850, 555.555 459.675 C 561.818 466.855, 562.128 467.433, 560.395 468.700 C 557.430 470.869, 542.158 467.815, 528.237 462.271 C 523.175 460.255, 521.689 460.014, 520.487 461.011 C 518.129 462.968, 518.683 464.973, 523.940 473.500 C 534.418 490.493, 539.795 502.918, 538.474 507.081 C 538.062 508.379, 535.649 510.187, 532.256 511.741 L 526.710 514.279 505.331 512.967 C 487.976 511.901, 480.897 511.890, 467.726 512.909 C 440.248 515.035, 415.369 515.207, 367.500 513.604 C 335.678 512.538, 318.187 511.534, 310.750 510.348 C 304.837 509.404, 300 508.331, 300 507.964 C 300 507.596, 301.098 505.767, 302.440 503.898 C 313.078 489.086, 320.784 475.539, 325.034 464.180 C 327.103 458.650, 331.109 436.339, 331.159 430.065 C 331.192 425.918, 330.235 423.529, 325.521 416 C 323.627 412.975, 322.060 410.275, 322.039 410 C 322.017 409.725, 341.462 409.584, 365.250 409.687 L 408.500 409.874 415.500 412.477 C 419.350 413.909, 425.303 416.251, 428.728 417.681 C 433.841 419.816, 435.229 420.055, 436.478 419.018 C 438.625 417.237, 438.367 414.371, 435.906 412.646 C 433.951 411.277, 434.265 411.131, 440.610 410.451 C 448.434 409.613, 457.442 410.986, 462.946 413.855 C 468.555 416.778, 481.313 419.330, 486.462 418.558 C 491.974 417.731, 497.394 414.167, 497.838 411.078 C 498.163 408.808, 498.410 408.745, 504.838 409.302 C 508.502 409.620, 515.550 411.100, 520.500 412.591 C 538.109 417.898, 539.440 417.166, 533.092 405.666 C 528.572 397.479, 527.841 392.187, 530.645 387.973 C 534.008 382.919, 542.642 374.765, 547 372.526 C 552.794 369.549, 570.109 354.609, 586 338.876 C 602.546 322.493, 609.792 314.441, 618.282 303 C 627.926 290.004, 629.673 288.230, 636 285.020 C 643.851 281.037, 651.722 278.799, 676.578 273.483 C 688.635 270.904, 704.971 267.024, 712.880 264.860 C 720.789 262.697, 727.450 261.117, 727.683 261.349 C 727.915 261.582, 723.564 265.629, 718.013 270.343 C 695.217 289.703, 676.449 307.690, 674.960 311.605 C 673.799 314.660, 674.256 316.698, 680.736 337.320 C 685.969 353.975, 686.081 353.385, 677.475 354.460 C 669.152 355.500, 667.182 358.376, 665.120 372.500 C 663.176 385.823, 661.722 415.663, 662.269 431.049 C 662.571 439.547, 663.323 461.125, 663.941 479 C 666.694 558.616, 669.420 574.663, 687.558 617.993 L 690.276 624.487 688.567 633.993 C 686.243 646.924, 685.521 667.198, 686.910 680.500 C 687.542 686.550, 688.515 696.450, 689.074 702.500 C 690.598 719.020, 690.108 718, 696.519 718 C 703.077 718, 702.768 719.943, 699.942 696.500 C 698.480 684.372, 697.854 672.765, 697.760 656 C 697.629 632.851, 697.675 632.291, 700.854 618.500 C 708.856 583.789, 710.628 578.071, 717.709 564.097 C 730.406 539.040, 734.188 534.095, 765.878 501.126 C 776.120 490.471, 785.752 479.919, 787.283 477.677 C 791.004 472.228, 790.835 472.319, 792.584 474.816 C 793.430 476.024, 797.132 479.430, 800.811 482.386 C 804.490 485.341, 808.850 488.972, 810.500 490.454 C 818.009 497.197, 833.320 506.737, 863.965 523.770 C 899.022 543.254, 912.009 551.356, 916.249 556.388 C 927.400 569.622, 935.038 584.730, 933.557 590.627 C 933.208 592.021, 931.841 594.813, 930.522 596.831 C 926.877 602.404, 926.686 604.774, 928.928 616.597 C 931.554 630.437, 931.528 631.806, 928.500 639 C 927.125 642.267, 926 646.724, 926 648.906 C 926 652.390, 925.332 653.529, 920.500 658.284 C 913.537 665.137, 913.499 666.328, 919.628 685.229 C 922.173 693.078, 925.398 703.663, 926.793 708.750 L 929.331 718 971.165 718 L 1013 718 1013.063 714.750 C 1013.098 712.962, 1013.537 707.675, 1014.039 703 C 1014.542 698.325, 1015.410 673.176, 1015.968 647.113 C 1016.655 615.062, 1017.345 599.289, 1018.101 598.378 C 1018.716 597.637, 1021.180 596.051, 1023.577 594.854 C 1030.669 591.312, 1034.575 587.481, 1047.299 571.586 L 1059.372 556.503 1059.404 545.001 C 1059.422 538.676, 1059.373 522.025, 1059.296 508 C 1059.219 493.975, 1059.217 477.100, 1059.292 470.500 C 1059.405 460.520, 1059.035 457.210, 1057.094 450.838 C 1055.478 445.531, 1054.953 441.995, 1055.385 439.338 C 1058.083 422.761, 1056.708 411.054, 1050.450 397.322 C 1048.618 393.301, 1046.118 386.903, 1044.894 383.104 L 1042.669 376.196 1045.060 370.848 C 1047.172 366.123, 1047.493 363.708, 1047.818 350.108 C 1048.289 330.370, 1046.436 319.082, 1040.930 308.142 C 1038.814 303.939, 1035.860 299.196, 1034.364 297.603 C 1031.003 294.020, 1017.216 287.438, 1002 282.150 C 995.675 279.953, 984.449 275.849, 977.053 273.031 C 969.657 270.213, 957.732 266.109, 950.553 263.911 C 934.931 259.127, 918.577 253.212, 910.921 249.577 C 905.754 247.123, 905.221 246.544, 903.693 241.714 C 902.785 238.846, 900.346 233.606, 898.271 230.070 C 893.821 222.482, 881.802 210, 878.946 210 C 877.419 210, 877.068 209.482, 877.423 207.750 C 877.676 206.513, 878.158 202.678, 878.494 199.228 C 879.360 190.330, 881.473 185.122, 886.155 180.347 C 890.157 176.264, 890.285 175.907, 893.675 159.347 C 898.699 134.809, 898.803 133.107, 895.518 129.204 C 894.035 127.442, 892.028 126, 891.058 126 C 889.414 126, 889.391 125.640, 890.723 120.750 C 892.650 113.674, 891.782 95.194, 889.020 84.500 C 884.053 65.265, 874.022 50.675, 858.830 40.588 C 846.650 32.501, 822.240 27.513, 805.500 29.690 M 810 34.697 C 803.572 35.388, 788.619 38.060, 779.510 40.145 C 768.571 42.649, 752.344 50.289, 745.708 56.060 C 737.579 63.129, 731.486 74.046, 730.501 83.308 L 729.949 88.500 733.798 80.955 C 741.726 65.415, 750.607 54.972, 757.460 53.132 C 762.909 51.669, 763.276 53.172, 758.180 56.082 C 748.112 61.832, 739.237 75.380, 732.331 95.537 C 728.818 105.792, 728.551 107.415, 728.196 120.662 C 727.765 136.740, 728.902 146.101, 732.087 152.679 C 733.723 156.060, 734.240 158.814, 734.112 163.471 C 733.813 174.340, 739.124 211, 740.998 211 C 742.031 211, 749.575 203.458, 755.901 196.101 C 758.872 192.646, 762.359 189.338, 763.651 188.749 C 766.505 187.449, 766.648 186.340, 764.068 185.522 C 759.294 184.006, 760.110 175.171, 766.004 164.573 C 769.916 157.539, 774.152 143.413, 773.972 138.005 C 773.767 131.836, 773.883 131.271, 775 133 C 776.362 135.107, 776.171 145.379, 774.638 152.500 C 773.927 155.800, 771.693 162.157, 769.673 166.626 C 765.086 176.774, 764.971 179.331, 769.024 181.010 C 775.125 183.537, 774.959 187.464, 768.607 190.834 C 766.257 192.080, 759.928 197.559, 754.542 203.008 C 749.156 208.457, 742.962 213.799, 740.776 214.881 L 736.803 216.847 739.852 218.423 C 746.680 221.954, 763.269 219.197, 771.200 213.212 C 776.534 209.187, 779.664 203.670, 780.525 196.773 C 781.115 192.054, 782.619 189.702, 783.458 192.187 C 783.702 192.909, 784.398 195.438, 785.004 197.807 C 786.989 205.554, 794.721 212.232, 804.870 214.965 C 809.581 216.234, 821.155 216.501, 825.385 215.440 C 828.201 214.733, 828.978 213, 826.479 213 C 824.695 213, 816.209 204.649, 810.500 197.275 C 805.766 191.160, 802.382 189.298, 793.893 188.137 C 790.428 187.663, 787.423 186.770, 787.218 186.153 C 786.976 185.429, 785.457 185.825, 782.944 187.265 C 779.878 189.023, 778.666 189.263, 777.272 188.391 C 774.730 186.800, 775.426 185.576, 779.200 185 C 781.527 184.645, 782.863 183.696, 783.803 181.731 C 785.694 177.776, 789.182 175.815, 793.665 176.185 C 799.318 176.651, 799.397 179.465, 793.825 181.938 L 789.500 183.859 794.500 183.951 C 803.587 184.120, 807.013 186.544, 819.823 201.868 C 822.267 204.793, 826.287 208.125, 829.073 209.537 C 834.475 212.275, 834.851 212.947, 832.250 215.219 C 828.783 218.247, 823.006 219.291, 812.824 218.730 C 804.931 218.295, 803 218.457, 803 219.552 C 803 220.302, 801.227 222.779, 799.061 225.057 L 795.122 229.197 785.730 228.849 C 776.452 228.504, 776.271 228.449, 770.740 224.271 C 765.204 220.089, 765.104 220.059, 761.645 221.504 C 759.721 222.308, 755.639 223.260, 752.574 223.620 C 749.277 224.008, 747 224.765, 747 225.473 C 747 227.224, 750.551 237.741, 753.044 243.370 L 755.200 248.240 757.577 244.253 C 759.653 240.772, 760.816 240, 766.728 238.179 C 776.833 235.067, 787.442 233.673, 795.434 234.406 C 803.041 235.104, 813.956 237.225, 818 238.792 C 819.375 239.325, 820.945 239.848, 821.489 239.956 C 822.032 240.063, 823.382 237.338, 824.489 233.899 C 826.688 227.064, 829 224.942, 829 229.760 C 829 231.370, 828.154 235.145, 827.121 238.150 C 825.559 242.689, 825.450 244.026, 826.477 246.056 C 829.737 252.501, 832.338 276.484, 831.829 295.415 L 831.414 310.855 833.572 307.677 C 834.759 305.930, 838.518 299.236, 841.926 292.803 L 848.121 281.106 844.657 281.668 C 841.768 282.137, 840.993 281.855, 839.983 279.969 C 838.365 276.944, 839.295 269.439, 841.697 266.136 C 842.752 264.686, 847.634 260.575, 852.546 257 C 863.384 249.113, 872.960 239.783, 875.282 234.849 C 876.460 232.344, 876.992 228.733, 876.973 223.349 L 876.946 215.500 874.032 222.331 C 869.223 233.604, 857.360 247.450, 843.123 258.405 C 836.484 263.514, 836 263.714, 836 261.347 C 836 260.439, 841.557 254.251, 848.349 247.597 C 869.344 227.030, 872.060 222.386, 874.469 202.923 C 876.450 186.926, 877.328 184.032, 881.861 178.546 C 884.961 174.795, 886.026 172.337, 887.430 165.703 C 888.385 161.192, 889.579 155.613, 890.083 153.307 C 891.412 147.232, 891.122 145.957, 889.373 150.172 C 887.741 154.101, 885.254 155.827, 884.406 153.617 C 884.122 152.875, 884.814 149.521, 885.944 146.165 C 889.812 134.686, 888.213 133.169, 880.500 141 C 875.205 146.375, 873.451 147.209, 874.305 143.943 C 874.736 142.293, 874.572 142.110, 873.479 143.017 C 872.729 143.640, 871.977 145.570, 871.808 147.306 C 871.374 151.760, 867.161 153.254, 863.248 150.343 C 859.747 147.739, 859.478 145.628, 861.374 135.634 C 863.911 122.258, 864.231 111.643, 862.569 96 C 861.722 88.025, 860.736 80.375, 860.378 79 C 859.932 77.283, 860.053 76.813, 860.767 77.500 C 862.459 79.129, 865.786 92.766, 867.074 103.350 C 868.025 111.165, 868.004 116.018, 866.974 126.850 C 866.259 134.357, 865.636 141.613, 865.588 142.973 C 865.451 146.829, 868.215 146.462, 870.940 142.262 C 876.448 133.773, 881.242 128.142, 883.903 127.040 C 886.706 125.879, 886.726 125.806, 887.274 114.686 C 888.080 98.313, 886.643 88.401, 881.811 77 C 876.601 64.707, 873.599 59.663, 868.582 54.771 C 852.810 39.392, 832.154 32.314, 810 34.697 M 806 47.177 C 802.975 48.294, 797.431 50.048, 793.679 51.074 C 787.511 52.763, 786.459 52.802, 782.679 51.485 C 775.516 48.989, 774.034 49.751, 779.715 53.009 C 782.909 54.842, 786.353 56, 788.604 56 C 794.041 56, 811.549 50.300, 814.741 47.491 L 817.500 45.063 814.500 45.105 C 812.850 45.127, 809.025 46.060, 806 47.177 M 845.287 53.990 C 847.573 55.932, 850.223 59.741, 851.974 63.603 C 853.569 67.121, 855.367 70, 855.969 70 C 859.624 70, 857.515 60.610, 852.684 55.378 C 850.430 52.938, 848.331 51.762, 845.500 51.352 L 841.500 50.773 845.287 53.990 M 798 121.139 C 794.425 122.254, 790.707 123.934, 789.737 124.874 C 788.187 126.375, 788.146 126.818, 789.396 128.527 C 790.795 130.440, 790.956 130.426, 799.219 127.736 C 809.176 124.493, 815.205 124.285, 821.141 126.978 C 823.538 128.066, 826.850 128.947, 828.500 128.936 L 831.500 128.917 827.654 125.520 C 820.192 118.928, 809.946 117.414, 798 121.139 M 748.173 124.484 C 742.820 126.155, 736.552 130.416, 733.834 134.233 C 731.196 137.938, 732.248 138.995, 735.766 136.174 C 737.270 134.968, 740.256 132.811, 742.403 131.382 C 746.591 128.592, 745.296 128.637, 764.040 130.623 C 769.917 131.246, 772.860 129.683, 771.667 126.575 C 770.366 123.184, 756.338 121.936, 748.173 124.484 M 807.029 128.961 C 804.833 130.350, 805.934 130.857, 813.458 131.923 C 818.014 132.568, 821.487 133.738, 823.864 135.430 C 826.374 137.216, 827.738 137.652, 828.466 136.902 C 829.186 136.160, 828.482 134.977, 826.150 133.011 C 821.226 128.861, 810.710 126.633, 807.029 128.961 M 885.486 130.458 C 883.844 131.160, 881.391 133.256, 880.036 135.117 L 877.571 138.499 881.513 135.250 C 887.520 130.298, 891.857 131.196, 892.136 137.450 C 892.249 139.969, 892.350 140.090, 892.719 138.148 C 893.900 131.933, 890.498 128.316, 885.486 130.458 M 744.500 135.863 C 739.695 138.049, 737.557 140.403, 738.394 142.585 C 738.912 143.934, 739.599 143.681, 742.617 141.031 C 747.115 137.083, 749.913 136, 755.624 136 C 758.365 136, 759.877 135.610, 759.500 135 C 758.482 133.353, 748.791 133.911, 744.500 135.863 M 800.581 135.346 C 793.218 137.073, 793.325 139.753, 800.732 139.121 C 801.960 139.016, 804.300 139.621, 805.932 140.465 C 809.779 142.454, 811.897 142.403, 814.260 140.265 C 816.092 138.606, 816.437 138.673, 822.018 141.765 C 828.329 145.261, 832 145.899, 832 143.500 C 832 142.675, 831.204 142, 830.232 142 C 829.260 142, 826.897 140.947, 824.982 139.660 C 820.559 136.687, 812.550 133.972, 808.572 134.096 C 806.882 134.149, 803.286 134.711, 800.581 135.346 M 754.500 139.929 C 748.704 140.679, 745.477 142.240, 743.993 145.013 C 743.414 146.094, 741.492 147.759, 739.720 148.711 C 736.629 150.373, 736.595 150.457, 738.865 150.806 C 740.487 151.055, 742.261 150.171, 744.508 147.992 C 747.271 145.314, 748.106 144.987, 749.827 145.908 C 752.922 147.564, 756.733 147.218, 758.193 145.149 C 758.950 144.078, 761.572 142.919, 764.418 142.399 C 767.122 141.905, 769.522 140.938, 769.751 140.250 C 770.206 138.883, 763.650 138.744, 754.500 139.929 M 799 142.764 C 799 144.262, 806.487 147, 810.586 147 C 814.419 147, 818 145.525, 818 143.946 C 818 143.400, 815.669 143.058, 812.750 143.176 C 809.862 143.294, 805.587 143.019, 803.250 142.567 C 800.492 142.033, 799 142.102, 799 142.764 M 758 147.500 C 756.075 148.241, 752.587 148.882, 750.250 148.924 C 745.873 149.002, 745.116 149.716, 747.200 151.800 C 749.100 153.700, 755.182 153.201, 759.988 150.750 C 767.475 146.932, 765.950 144.438, 758 147.500 M 876.589 151.629 C 876.245 152.525, 876.499 154.737, 877.152 156.544 C 878.149 159.302, 878.072 160.242, 876.670 162.380 C 874.677 165.423, 874.569 168.849, 876.392 171.250 C 878.193 173.623, 879.280 173.458, 878.479 170.933 C 878.041 169.554, 878.684 167.564, 880.411 164.955 C 883.515 160.265, 883.706 156.706, 881 154 C 879.900 152.900, 879 151.550, 879 151 C 879 149.397, 877.272 149.848, 876.589 151.629 M 795.896 168.535 C 797.603 170.479, 799 172.729, 799 173.535 C 799 174.341, 799.450 175, 800 175 C 801.751 175, 801.076 170.366, 798.927 167.635 C 797.788 166.186, 795.941 165, 794.824 165 C 792.985 165, 793.086 165.334, 795.896 168.535 M 807 178.040 C 807 179.311, 821.154 195.180, 821.753 194.580 C 822.548 193.786, 818.721 187.653, 814.728 183.321 C 810.214 178.423, 807 176.227, 807 178.040 M 752 193 C 750.823 195.307, 750.085 197.419, 750.360 197.694 C 750.635 197.969, 751.823 196.307, 753 194 C 754.177 191.693, 754.915 189.581, 754.640 189.306 C 754.365 189.031, 753.177 190.693, 752 193 M 847.524 189.962 C 847.081 190.679, 846.123 199.643, 845.397 209.883 C 843.716 233.566, 843.715 234, 845.339 234 C 848.364 234, 849.389 228.684, 849.774 211 C 850.139 194.258, 849.361 186.989, 847.524 189.962 M 780.034 211.936 C 779.020 213.831, 779.198 213.994, 782.215 213.930 C 786.087 213.847, 789.765 212.582, 788.434 211.790 C 787.920 211.485, 786.069 210.928, 784.320 210.553 C 781.721 209.996, 780.937 210.249, 780.034 211.936 M 788 215.688 C 785.638 216.718, 782.874 217.032, 779.500 216.654 C 776.351 216.302, 773.654 216.560, 772.214 217.352 C 769.947 218.598, 769.966 218.637, 774.377 221.805 C 778.394 224.689, 779.526 225, 786.012 225 C 792.761 225, 793.374 224.811, 796.099 221.894 C 797.694 220.186, 799 218.363, 799 217.843 C 799 217.067, 792.739 213.805, 791.782 214.082 C 791.627 214.126, 789.925 214.849, 788 215.688 M 879.990 226.667 C 879.973 238.954, 873.563 248.291, 856.415 261.012 C 846.966 268.022, 845 270.247, 845 273.934 C 845 275.621, 845.630 276, 848.433 276 C 850.992 276, 852.027 276.511, 852.503 278.009 C 853.404 280.849, 842.072 303.908, 832.802 318.096 C 822.276 334.205, 822.777 332.947, 825.564 336.259 C 826.875 337.817, 828.453 340.983, 829.071 343.295 C 829.689 345.608, 833.026 353.800, 836.487 361.500 C 839.948 369.200, 843.058 376.400, 843.398 377.500 C 843.739 378.600, 845.586 381.300, 847.504 383.500 C 850.601 387.052, 851.108 387.307, 852.032 385.774 C 852.604 384.824, 856.628 379.424, 860.974 373.774 C 873.396 357.620, 902.229 314.416, 901.845 312.529 C 901.625 311.449, 899 309.961, 894.614 308.430 C 885.525 305.256, 881.976 303.089, 879.253 299.048 C 874.570 292.098, 876.716 283.270, 886.228 270.358 C 901.275 249.932, 900.998 250.843, 895.564 239.605 C 892.145 232.534, 883.633 221.019, 881.250 220.241 C 880.333 219.942, 879.997 221.652, 879.990 226.667 M 749.559 253.532 C 748.491 254.339, 746.807 255, 745.815 255 C 744.824 255, 740.522 258.052, 736.256 261.782 C 731.990 265.513, 723.325 272.895, 717 278.188 C 710.675 283.481, 699.928 293.467, 693.118 300.379 L 680.736 312.946 681.414 317.223 C 681.787 319.575, 684.097 327.476, 686.546 334.781 C 688.996 342.085, 691 349.365, 691 350.958 C 691 354.788, 687.687 357.304, 680.537 358.904 C 675.926 359.936, 674.691 360.659, 673.823 362.834 C 671.730 368.085, 670.548 421.387, 671.836 452.500 C 672.496 468.450, 673.028 490.050, 673.019 500.500 C 672.995 527.564, 676.711 572.044, 679.204 574.538 C 679.470 574.804, 679.978 568.829, 680.332 561.261 C 681.135 544.106, 685.684 512.350, 691.501 483.293 C 693.946 471.080, 696.843 456.005, 697.940 449.793 C 703.151 420.282, 705.327 411.372, 714.011 384 C 717.936 371.625, 722.224 357.900, 723.539 353.500 C 728.649 336.398, 738.447 314.609, 747.754 299.652 C 749.935 296.148, 750.224 294.230, 750.990 278.152 C 751.452 268.443, 752.306 258.973, 752.886 257.108 C 754.442 252.110, 753.201 250.777, 749.559 253.532 M 904.549 256.536 C 903.734 258.488, 899.676 264.738, 895.531 270.425 C 880.972 290.403, 881.218 294.166, 897.497 300.473 C 905.259 303.480, 907.324 304.726, 908.582 307.158 C 910.892 311.626, 909.667 314.991, 901.212 327.400 C 897.052 333.505, 889.605 344.547, 884.662 351.937 C 879.719 359.328, 870.999 371.198, 865.284 378.316 L 854.893 391.257 857.196 393.810 C 865.308 402.798, 887.083 417.857, 916.118 434.559 C 923.057 438.551, 929.582 442.336, 930.618 442.970 C 932.196 443.937, 934.195 443.211, 942.993 438.477 C 948.764 435.372, 957.989 429.876, 963.493 426.265 C 981.645 414.354, 1000.939 402.962, 1003.994 402.351 C 1009.525 401.245, 1007.317 404.238, 995.235 414.223 C 988.764 419.570, 981.452 426.013, 978.985 428.542 L 974.500 433.138 980 430.970 C 983.025 429.778, 987.600 427.969, 990.166 426.949 C 996.945 424.256, 1010.439 421.159, 1018.769 420.385 C 1024.784 419.826, 1026 419.961, 1026 421.190 C 1026 423.120, 1018.149 428.336, 1004.582 435.419 C 998.577 438.554, 992.603 441.954, 991.306 442.974 L 988.949 444.828 992.724 446.025 C 998.100 447.730, 1001 449.767, 1001 451.836 C 1001 454.243, 996.572 458.245, 990.606 461.232 L 985.712 463.682 990.288 465.897 C 999.248 470.235, 1007 475.853, 1007 478.010 C 1007 481.821, 1005.460 481.770, 987 477.346 C 985.533 476.995, 987.598 478.913, 992 481.990 C 996.125 484.874, 1000.995 488.546, 1002.823 490.150 C 1004.651 491.754, 1007.913 494.183, 1010.073 495.546 C 1014.060 498.063, 1015.314 501, 1012.401 501 C 1009.897 501, 989.338 489.329, 974.500 479.484 C 966.493 474.171, 958.796 469.434, 944.465 461 C 940.260 458.525, 930.222 452.172, 922.160 446.883 C 914.097 441.594, 901.200 433.542, 893.500 428.990 C 874.449 417.729, 861.594 408.843, 854.874 402.292 L 849.248 396.808 847.624 399.126 C 846.731 400.402, 845.996 402.582, 845.991 403.973 C 845.971 409.561, 839.788 430.399, 834.264 443.500 C 831.074 451.064, 820.871 468.970, 815.426 476.559 L 809.974 484.158 812.237 486.138 C 818.496 491.614, 839.136 504.224, 862 516.541 C 876.025 524.097, 895.375 534.797, 905 540.319 C 914.625 545.842, 931.275 554.604, 942 559.791 C 952.725 564.977, 964.650 571.128, 968.500 573.458 C 979.219 579.945, 995.173 588.768, 998.315 589.945 C 999.863 590.525, 1004.181 591, 1007.910 591 C 1013.276 591, 1015.045 590.608, 1016.392 589.120 C 1017.343 588.068, 1019.117 582.283, 1020.415 575.993 C 1022.735 564.759, 1022.743 564.742, 1027.855 560.042 C 1033.328 555.010, 1039.010 544.410, 1038.988 539.272 C 1038.981 537.747, 1037.637 530.875, 1036 524 C 1031.883 506.708, 1032.126 500.710, 1037.164 495.332 C 1039.588 492.744, 1039.368 491.243, 1034.323 476 C 1030.395 464.131, 1029.256 462.458, 1024.491 461.564 C 1019.030 460.540, 1019.112 458.181, 1025.030 446.143 C 1027.908 440.289, 1031.553 433.619, 1033.131 431.320 C 1036.410 426.543, 1036.610 424.419, 1034.466 417.198 C 1032.226 409.653, 1029.332 406.744, 1023.389 406.061 C 1019.297 405.592, 1018.448 405.136, 1018.182 403.265 C 1018.008 402.036, 1018.570 400.024, 1019.432 398.793 C 1021.533 395.794, 1021.408 392.816, 1019.078 390.315 C 1016.240 387.268, 1011.293 386.745, 1002.898 388.602 C 992.375 390.930, 991.557 390.900, 991.170 388.168 C 990.988 386.885, 991.488 385.085, 992.281 384.168 C 995.644 380.278, 1013.745 349.685, 1018.210 340.344 C 1023.903 328.433, 1025.768 319.830, 1025.191 308.137 L 1024.778 299.774 1018.639 296.993 C 1010.868 293.473, 974.304 279.506, 954 272.301 C 932.906 264.816, 918.618 259.247, 911.766 255.839 L 906.032 252.987 904.549 256.536 M 743.851 314 C 738.285 324.359, 731.254 340.181, 729.185 347 C 728.601 348.925, 724.287 363.100, 719.599 378.500 C 710.083 409.755, 707.192 421.181, 702.902 444.500 C 701.283 453.300, 698.385 468.600, 696.462 478.500 C 687.225 526.059, 682.621 569.327, 684.730 588.738 C 685.736 597.988, 690.706 614.082, 692.994 615.496 C 693.469 615.790, 694.622 612.535, 695.556 608.265 C 699.634 589.632, 711.629 550.160, 719.796 528.500 C 729.629 502.421, 749.682 461.596, 762.713 441.126 L 766.133 435.753 765.889 417.376 C 765.754 407.269, 765.451 399, 765.216 399 C 764.981 399, 763.452 400.125, 761.818 401.500 C 758.429 404.351, 755.400 404.669, 752.299 402.497 C 749.510 400.543, 748.088 396.059, 747.529 387.455 C 747.281 383.630, 746.786 379.055, 746.431 377.290 C 746.040 375.346, 746.401 372.270, 747.348 369.492 C 748.822 365.165, 748.800 364.720, 746.960 361.702 C 743.457 355.958, 744.266 353.149, 752.149 343.663 C 755.822 339.243, 757 337.012, 757 334.478 C 757 332.637, 757.417 330.033, 757.927 328.692 C 758.711 326.630, 758.487 326.087, 756.475 325.171 C 753.015 323.594, 750.852 318.619, 750.128 310.572 L 749.492 303.500 743.851 314 M 774.303 318.792 C 772.544 319.731, 769.057 322.453, 766.553 324.840 C 761.541 329.618, 760.540 332.581, 764.250 331.656 C 770.598 330.075, 775.567 329.888, 783.433 330.934 C 791.629 332.025, 796.999 333.599, 797 334.911 C 797.001 335.235, 791.263 335.353, 784.250 335.174 C 769.245 334.790, 764.521 335.923, 761.825 340.551 C 760.848 342.230, 759.925 345.155, 759.774 347.051 C 759.535 350.058, 759.756 350.437, 761.500 350.005 C 766.764 348.701, 790.674 350.530, 787.852 352.020 C 787.108 352.413, 782.119 353.028, 776.765 353.386 C 766.522 354.072, 762.727 355.053, 759.611 357.820 C 757.161 359.995, 752.002 370.826, 752.001 373.797 C 752 376.036, 752.103 376.011, 756.048 372.841 C 759.895 369.749, 760.576 369.572, 769.798 369.251 C 780.987 368.861, 780.669 370.490, 769.240 372.108 C 761.405 373.218, 757.371 375.343, 754.154 380.054 C 752.121 383.031, 751.874 384.318, 752.340 389.512 C 752.637 392.819, 753.180 396.307, 753.547 397.262 C 754.715 400.306, 758.290 399.276, 762.156 394.780 C 765.460 390.939, 766.230 390.540, 770.135 390.642 C 772.979 390.717, 774.844 390.229, 775.584 389.215 C 777.441 386.676, 780 388.484, 780 392.335 C 780 395.188, 780.739 396.308, 784.615 399.328 C 790.834 404.173, 793.529 408.061, 796.107 415.903 C 799.349 425.767, 801.249 428.916, 807.889 435.436 C 813.701 441.143, 814.034 441.320, 816.510 439.995 C 824.386 435.779, 833.477 420.009, 838.013 402.691 C 841.609 388.963, 841.214 385.909, 833.081 364.500 C 829.110 354.050, 825.105 343.925, 824.180 342 C 821.920 337.299, 811.182 330.187, 790 319.362 C 784.668 316.637, 778.739 316.422, 774.303 318.792 M 803.227 320.511 C 804.435 321.801, 816.474 328.859, 816.841 328.492 C 817.826 327.507, 815.509 323.797, 813.145 322.575 C 810.063 320.981, 802.119 319.328, 803.227 320.511 M 968.681 332.935 C 957.231 345.310, 939.618 380.238, 932.572 404.542 C 929.710 414.414, 928.164 426, 929.708 426 C 930.250 426, 932.402 421.387, 934.492 415.750 C 942.269 394.768, 957.243 362.450, 968.852 341.592 C 974.402 331.621, 975.286 329, 973.102 329 C 972.672 329, 970.683 330.771, 968.681 332.935 M 751.159 351 C 748.821 354.719, 748.626 359.500, 750.813 359.500 C 751.535 359.500, 752.850 358.306, 753.736 356.847 C 754.997 354.769, 755.130 353.470, 754.352 350.847 L 753.359 347.500 751.159 351 M 770 417 C 770 428.550, 770.337 438.009, 770.750 438.020 C 771.163 438.031, 774.650 438.497, 778.500 439.056 C 786.205 440.174, 794.970 439.474, 797.633 437.527 C 799.214 436.371, 799.030 435.624, 795.268 427.887 C 793.025 423.274, 790.436 417.137, 789.515 414.250 C 788.246 410.273, 786.734 408.090, 783.284 405.250 C 780.779 403.187, 777.485 400.262, 775.963 398.750 C 774.442 397.238, 772.478 396, 771.599 396 C 770.184 396, 770 398.423, 770 417 M 313 413.596 C 313 413.923, 313.821 415.386, 314.825 416.846 C 319.083 423.037, 320.488 431.149, 318.969 440.773 C 316.269 457.881, 312.825 468.276, 306.057 479.750 C 304.353 482.637, 303.224 485, 303.546 485 C 303.869 485, 305.760 483.762, 307.748 482.250 C 312.425 478.692, 319.585 463.647, 321.620 453.103 C 322.427 448.921, 323.180 440.275, 323.294 433.888 L 323.500 422.276 319.500 417.732 C 315.975 413.728, 313 411.835, 313 413.596 M 291.500 416.629 C 283.449 418.314, 258.338 426.705, 246.313 431.728 C 241.809 433.609, 236.958 436.314, 235.532 437.740 C 234.106 439.166, 230.652 444.392, 227.856 449.352 C 223.162 457.679, 209.648 478.200, 206.203 482.231 C 205.041 483.591, 204.981 484.272, 205.921 485.405 C 207.853 487.733, 205.537 494.321, 201.559 497.814 C 199.681 499.463, 198.412 501.079, 198.739 501.406 C 200.048 502.715, 207.309 501.883, 210.999 500.001 C 216.084 497.406, 218.171 495.140, 230.030 479.336 C 239.058 467.305, 246.240 459.906, 247.585 461.251 C 247.876 461.543, 245.973 464.410, 243.356 467.623 C 238.847 473.159, 227 490.428, 227 491.464 C 227 491.731, 228.238 492.595, 229.750 493.385 C 231.262 494.175, 236.267 497.773, 240.871 501.381 C 247.635 506.681, 249.590 507.755, 251.055 506.970 C 253.840 505.480, 257.184 505.815, 260.656 507.932 C 263.574 509.711, 265 509.718, 265 507.952 C 265 507.559, 263.037 506.743, 260.639 506.139 C 255.704 504.897, 250.454 500.154, 249.711 496.268 C 249.442 494.862, 249.619 492.328, 250.104 490.637 C 250.897 487.873, 250.592 487.153, 247.100 483.531 C 244.963 481.314, 242.911 478.488, 242.540 477.250 C 241.477 473.706, 245.017 474.391, 249 478.500 C 250.866 480.425, 252.682 482, 253.036 482 C 253.389 482, 254.172 480.918, 254.775 479.595 C 255.762 477.427, 255.576 477.067, 252.897 475.957 C 249.128 474.396, 247.396 471.433, 249.072 469.413 C 250.522 467.666, 253.584 468.392, 256.672 471.216 L 258.843 473.201 261.306 469.351 C 263.042 466.637, 263.471 465.131, 262.762 464.250 C 262.048 463.364, 262.170 463, 263.178 463 C 264.571 463, 269.531 454.197, 268.640 453.306 C 268.391 453.058, 266.458 453.335, 264.344 453.922 C 262.230 454.509, 259.613 454.991, 258.528 454.994 C 256.565 455, 256.565 454.991, 258.528 453.148 C 261.568 450.292, 271.902 446.502, 273.175 447.775 C 274.699 449.299, 269.692 464.388, 265.436 471.100 C 259.710 480.129, 255 490.269, 255 493.567 C 255 496.748, 256.904 499.125, 260.476 500.404 C 262.235 501.033, 262.192 500.834, 260.089 498.595 C 258.178 496.561, 257.838 495.384, 258.314 492.450 C 259.190 487.052, 260.726 485.700, 265.286 486.312 C 267.414 486.597, 270.063 487.652, 271.173 488.657 C 273.149 490.445, 273.256 490.400, 276.329 486.491 C 281.305 480.161, 286.979 475.193, 294.157 470.881 C 297.819 468.682, 302.431 465.312, 304.407 463.393 C 306.383 461.474, 308 460.223, 308 460.614 C 308 463.017, 302.229 470.432, 298.227 473.171 C 292.026 477.413, 282.904 486.036, 283.536 487.058 C 284.006 487.818, 284.988 487.754, 292.696 486.464 C 294.864 486.102, 297.217 484.424, 300.012 481.249 C 306.542 473.831, 310.379 464.443, 313.521 448.201 C 316.517 432.710, 316.409 430.912, 311.909 421.404 C 308.790 414.813, 304.720 413.861, 291.500 416.629 M 832.637 424.800 C 828.358 435.124, 824.715 440.201, 818.686 444.244 C 814.669 446.937, 813.595 447.090, 809.780 445.518 C 807.887 444.738, 805.538 449.220, 799.882 464.402 L 796.939 472.303 800.219 475.160 C 806.621 480.736, 806.330 480.818, 812.354 471.751 C 820.705 459.185, 829.369 441.747, 833.472 429.249 C 835.504 423.061, 836.995 417.484, 836.785 416.855 C 836.576 416.227, 834.709 419.802, 832.637 424.800 M 803 439.966 C 803 440.562, 801.875 441.477, 800.500 442 C 798.380 442.806, 797.995 443.600, 797.968 447.225 C 797.915 454.416, 796.410 455.445, 785.358 455.850 C 779.089 456.079, 775.407 455.807, 774.658 455.058 C 774.031 454.431, 773.288 451.353, 773.009 448.218 C 772.173 438.851, 770.338 439.948, 762.170 454.701 C 748.370 479.626, 729.731 520.036, 722.862 539.922 C 720.571 546.554, 720.582 546.543, 727.722 535.248 C 736.106 521.985, 748.834 507.218, 765.982 490.862 C 779.485 477.981, 783.716 473.075, 789.422 463.683 C 790.812 461.396, 791.405 461.091, 792.574 462.062 C 793.760 463.046, 794.220 462.660, 795.176 459.878 C 795.814 458.020, 798.240 452.785, 800.566 448.245 C 802.891 443.705, 804.391 439.741, 803.897 439.436 C 803.404 439.131, 803 439.370, 803 439.966 M 776.590 446.145 C 777.621 452.080, 777.508 452, 784.846 452 C 792.534 452, 794.114 451.018, 793.295 446.750 C 792.781 444.071, 792.591 444, 785.965 444 C 782.224 444, 778.454 443.728, 777.586 443.395 C 776.279 442.893, 776.108 443.366, 776.590 446.145 M 198.816 492.223 C 197.461 494.025, 196.029 496.375, 195.633 497.444 C 194.921 499.368, 194.935 499.369, 197.059 497.446 C 199.383 495.344, 202.417 490.084, 201.713 489.380 C 201.474 489.141, 200.171 490.420, 198.816 492.223 M 261.550 491.656 C 260.965 493.989, 261.325 494.848, 263.673 496.727 C 267.148 499.509, 267.080 499.513, 269.372 496.369 C 271.202 493.858, 271.202 493.758, 269.372 491.963 C 268.342 490.953, 266.320 489.838, 264.878 489.487 C 262.610 488.934, 262.160 489.228, 261.550 491.656 M 282.379 493.733 C 277.807 494.057, 276.918 494.519, 274.082 498.048 C 272.335 500.222, 271.125 502, 271.394 502 C 272.430 502, 289 494.026, 289 493.527 C 289 493.237, 288.663 493.083, 288.250 493.185 C 287.837 493.287, 285.196 493.533, 282.379 493.733 M 709.198 650.673 C 704.983 652.750, 703 656.622, 703 662.776 C 703 668.449, 705.421 671.449, 711.310 673.075 C 718.352 675.019, 725.610 669.323, 726.730 660.974 C 727.386 656.082, 725.197 652.398, 720.454 650.416 C 716.090 648.593, 713.289 648.657, 709.198 650.673 M 710 657 C 706.307 660.693, 707.945 666, 712.777 666 C 715.432 666, 721 660.998, 721 658.612 C 721 654.927, 713.214 653.786, 710 657"
          stroke="none" fill="#0b0b0b" fill-rule="evenodd"/>
</svg>
